<svg id="Layer_1" xmlns="http://www.w3.org/2000/svg" viewBox="0 0 294.5 30.6">
  <style>
    .st0{fill:#f7f7f7}
  </style>
  <path class="st0" d="M15.5 13.2c0-5 3.8-9 9.4-9 3.5 0 5.3 1.2 6.6 2.2L30 9.3a7.5 7.5 0 0 0-5-2c-3.5 0-5.7 2.6-5.7 5.8 0 3.2 2.2 5.5 5.9 5.5 2.6 0 4.3-1.3 5.4-2.3L32 19c-.9 1-3.3 2.9-7 2.9-6.5 0-9.5-4-9.5-8.7zM52.1 12.9c0 5.1-3.7 9-9.3 9-5.3 0-9.3-3.6-9.3-9 0-5 4-8.8 9.3-8.8 5.3 0 9.3 3.8 9.3 8.8zm-14.7 0c0 3.6 2.3 5.7 5.4 5.7 3.1 0 5.5-2 5.5-5.7 0-3.3-2.4-5.5-5.5-5.5-3 0-5.4 2.2-5.4 5.5zM67.6 4.4h3.7v17.2h-3.4L58.5 10l.2 4v7.5H55V4.4h3.5l9.3 11.4-.2-3.6V4.4zM79.9 7.7h-6.3V4.4h16.2v3.3h-6.3v13.9H80v-14zM99.3 4.4l7.3 17.2h-4l-1.7-4h-7l-1.7 4h-4l7.3-17.2h3.8zM94.8 15h5.2l-1.1-2.5c-.5-1-1.4-4.1-1.4-4.1h-.2L96 12.4l-1 2.5zM107.7 13.2c0-5 3.7-9 9.4-9 3.5 0 5.3 1.2 6.5 2.2l-1.4 2.9a7.5 7.5 0 0 0-5-2c-3.6 0-5.7 2.6-5.7 5.8 0 3.2 2.1 5.5 5.9 5.5 2.6 0 4.3-1.3 5.4-2.3l1.4 2.7c-1 1-3.3 2.9-7.1 2.9-6.4 0-9.4-4-9.4-8.7zM131.4 7.7H125V4.4h16.2v3.3H135v13.9h-3.6v-14zM165.6 4.4v10.4c0 4.8-3.5 7-7.9 7s-8-2.2-8-7V4.4h3.7v10.2c0 2.5 1.4 4 4.3 4s4.3-1.5 4.3-4V4.4h3.6zM168.7 20.5l.7-3c1.4.6 3.6 1.3 5.7 1.3 2.6 0 3.8-1 3.8-2.4 0-.7-.3-1.2-1-1.5-.5-.3-1.8-.5-3.3-.7-1.7-.2-3-.5-4-1.1a4.1 4.1 0 0 1-2.1-3.8c0-3 2.7-5.2 6.9-5.2 2.4 0 4.4.5 6 1.3l-.8 2.8c-1.3-.5-3.3-1-5.1-1-2.6 0-3.4 1-3.4 2.1 0 .6.2 1.1 1 1.5.6.3 1.8.4 3.2.6 1.6.2 3 .5 4 1 1.4.9 2.1 2.2 2.1 4 0 3-2.3 5.5-7 5.5-2.8 0-5-.6-6.7-1.4zM196.1 7.7h-6.3V4.4H206v3.3h-6.2v13.9H196v-14zM225.8 12.9c0 5.1-3.8 9-9.3 9-5.4 0-9.3-3.6-9.3-9 0-5 4-8.8 9.3-8.8 5.3 0 9.3 3.8 9.3 8.8zm-14.8 0c0 3.6 2.4 5.7 5.5 5.7 3 0 5.4-2 5.4-5.7 0-3.3-2.3-5.5-5.4-5.5-3.1 0-5.5 2.2-5.5 5.5zM234.1 4.4c7.5 0 10.3 3.8 10.3 8.6 0 5.7-3.3 8.6-9.3 8.6h-6.4V4.4h5.4zm-1.8 14h2.9c3.8 0 5.5-1.7 5.5-5.4 0-3-1.5-5.3-6-5.3h-2.4v10.6zM256.6 4.4l7.3 17.2h-4l-1.7-4h-7l-1.7 4h-4l7.3-17.2h3.8zM252 15h5.2l-1.1-2.5a64 64 0 0 1-1.4-4.1h-.2l-1.4 4.1-1 2.5zM272.8 21.6H269v-7l-6.8-10.2h4.1l3.1 4.5 1.4 2.5 1.5-2.5 3-4.5h4.3l-7 10.2v7z"/>
</svg>
