<svg xmlns="http://www.w3.org/2000/svg" viewBox="0 0 430.1 428.4">
  <style>
    .st1{fill:#3989c9}.st2{fill:none;stroke:#6dc065;stroke-width:26.7737;stroke-miterlimit:10}.st3{fill:#6dc065}
  </style>
  <g id="blue">
    <path d="M299.4 334.3c34.4-24.3 58-63 61.9-107.4h-52.4c-4.8 29.2-25.4 55.2-55.8 73.7l22.5 104.6A200.6 200.6 0 0 1 16.1 226.9H69c4.7 50.7 35 94 77.6 116.6" fill="none" stroke="#3989c9" stroke-width="26.8" stroke-miterlimit="10"/>
    <path class="st1" d="M150 365.2c10.4 0 20.3-9 19.8-19.8a20.1 20.1 0 0 0-19.8-19.8c-10.3 0-20.3 9.1-19.8 19.8a20.1 20.1 0 0 0 19.8 19.8zM305.5 352.3c10.4 0 20.3-9.1 19.8-19.8a20.1 20.1 0 0 0-19.8-19.8c-10.3 0-20.2 9-19.8 19.8a20.1 20.1 0 0 0 19.8 19.8z"/>
  </g>
  <g id="green_inner">
    <path class="st2" d="M169.9 294.4a93.2 93.2 0 0 1 46.7-174.2 93.3 93.3 0 0 1 81 46.7h56.3a146.6 146.6 0 0 0-138.6-99.4c-67 0-123.3 45-140.9 106.6"/>
    <path class="st3" d="M73.2 200.9c10.4 0 20.3-9.1 19.8-19.8a20.1 20.1 0 0 0-19.8-19.8c-10.3 0-20.2 9.1-19.8 19.8a20.1 20.1 0 0 0 19.8 19.8zM166 314.4c10.3 0 20.2-9 19.8-19.8a20.1 20.1 0 0 0-19.8-19.8c-10.4 0-20.3 9.1-19.8 19.8a20.1 20.1 0 0 0 19.8 19.8z"/>
  </g>
  <g id="green_outer">
    <path class="st2" d="M19.8 174A200 200 0 0 1 215.9 14.3a200 200 0 0 1 103.5 371.3"/>
    <path class="st3" d="M20.4 200.9c10.4 0 20.3-9.1 19.8-19.8a20.1 20.1 0 0 0-19.8-19.8C10.1 161.3.1 170.4.6 181a20.1 20.1 0 0 0 19.8 19.8zM316.5 408c10.4 0 20.3-9 19.8-19.7a20.1 20.1 0 0 0-19.8-19.8c-10.3 0-20.3 9-19.8 19.8a20.1 20.1 0 0 0 19.8 19.8z"/>
  </g>
</svg>
