<svg id="Layer_1" xmlns="http://www.w3.org/2000/svg" viewBox="0 0 320 40">
  <style>
    .st0{fill:#323232}
  </style>
  <path class="st0" d="M14.8 12.1h6.5c4.7 0 6.9 2.4 6.9 5.6 0 2-.9 3.7-2.8 4.7l4.2 6.9h-4l-4-6.2h-3.2v6.2h-3.6V12zm6.3 8.2c2.4 0 3.4-.7 3.4-2.5 0-1.5-.7-2.5-3.2-2.5h-2.9v5h2.7zM35.5 22v4h9.7v3.3H31.9V12h12.8v3.2h-9.2v3.8h8.1V22h-8zM65.4 20.6c0 3.4-1.6 6.1-4.3 7.6.5.2.9.6 1.1.8l3.8 3.8h-4.4L58 29.4l-2 .2c-5.3 0-9.3-3.6-9.3-9 0-5 4-8.8 9.4-8.8 5.2 0 9.3 3.8 9.3 8.8zm-14.8 0c0 3.6 2.4 5.7 5.5 5.7 3 0 5.4-2 5.4-5.7 0-3.3-2.3-5.5-5.4-5.5-3.1 0-5.5 2.2-5.5 5.5zM84 12.1v10.4c0 4.8-3.5 7-7.9 7-4.3 0-8-2.2-8-7V12h3.7v10.2c0 2.5 1.4 4 4.3 4s4.3-1.5 4.3-4V12.1h3.7zM91.7 22v4h9.6v3.3H88.1V12h12.8v3.2h-9.2v3.8h8V22h-8zM103.1 28.2l.8-3c1.4.6 3.6 1.3 5.7 1.3 2.6 0 3.8-1 3.8-2.4 0-.7-.4-1.2-1-1.5-.6-.3-1.8-.5-3.3-.7-1.7-.2-3-.5-4-1.1a4.1 4.1 0 0 1-2.2-3.8c0-3 2.8-5.2 7-5.2 2.4 0 4.4.5 6 1.3l-.8 2.8c-1.3-.5-3.3-1-5.1-1-2.6 0-3.4 1-3.4 2.1 0 .6.2 1.1 1 1.5.6.3 1.7.4 3.2.6 1.6.2 3 .5 4 1 1.4.9 2.1 2.2 2.1 4 0 3-2.4 5.5-7 5.5-2.8 0-5-.6-6.8-1.4zM124.4 15.4H118V12h16.2v3.3H128v13.9h-3.6v-14zM152.1 12.1l7.3 17.2h-4l-1.7-4h-7l-1.7 4h-4l7.3-17.2h3.8zm-4.5 10.5h5.2l-1-2.5c-.6-1-1.5-4.1-1.5-4.1h-.2l-1.4 4.1-1 2.5zM171.6 12.1v14h9v3.2h-12.7V12h3.7zM186.5 12.1v17.2H183V12h3.6zM188.8 12.1h4l4 9.2.9 3.1h.2s.6-2.3 1-3.1l3.8-9.2h4l-7.1 17.2H196L188.8 12zM212.7 22v4h9.6v3.3H209V12H222v3.2h-9.2v3.8h8V22h-8zM236.8 12.1c7.5 0 10.2 3.8 10.2 8.6 0 5.7-3.3 8.6-9.2 8.6h-6.5V12h5.5zm-1.8 14h2.8c3.8 0 5.6-1.7 5.6-5.4 0-3-1.6-5.3-6-5.3H235V26zM253.6 22v4h9.7v3.3H250V12h12.8v3.2h-9.2v3.8h8.1V22h-8zM271.5 20.7l-2-3.5.2 4v8H266v-17h3.8l5.5 8.8 5.7-8.9h3.8v17.2h-3.7v-8l.3-4-.1-.1-2 3.5-3.6 5.7h-.7l-3.6-5.7zM306.4 20.6c0 5.1-3.7 9-9.3 9-5.3 0-9.3-3.6-9.3-9 0-5 4-8.8 9.3-8.8 5.3 0 9.3 3.8 9.3 8.8zm-14.8 0c0 3.6 2.4 5.7 5.5 5.7 3 0 5.5-2 5.5-5.7 0-3.3-2.4-5.5-5.5-5.5s-5.5 2.2-5.5 5.5z"/>
</svg>
