<svg id="Layer_1" xmlns="http://www.w3.org/2000/svg" viewBox="0 0 300 80">
  <style>
    .st0{fill:#323232}
  </style>
  <path class="st0" d="M5.6 35c0-11.4 8.6-20.8 21.6-20.8 8.2 0 12.3 3 15.1 5.2L39 26a17.2 17.2 0 0 0-11.5-4.4c-8.2 0-13.1 6-13.1 13.3 0 7.2 4.9 12.7 13.5 12.7 6 0 9.9-3 12.4-5.3l3.3 6a22 22 0 0 1-16.3 6.7c-14.8 0-21.7-9.3-21.7-20zM90 34.5C90 46.3 81.4 55 68.5 55c-12.2 0-21.4-8.2-21.4-20.7 0-11.4 9.2-20.2 21.4-20.2S90 23 90 34.5zm-34 0c0 8.4 5.4 13 12.5 13s12.6-4.6 12.6-13C81.1 27 75.7 22 68.5 22c-7 0-12.6 5-12.6 12.6zM125.8 15h8.4v39.4h-7.9L104.7 28s.4 6 .4 9v17.4h-8.3V15h8l21.4 26.2h.1s-.5-6-.5-8.4V15zM154 22.4h-14.5V15H177v7.4h-14.6v32H154v-32zM198.9 15l16.9 39.4h-9.2l-4-9.1h-16.3l-3.9 9.1h-9.1L190.2 15h8.7zm-10.3 24h11.8l-2.4-5.6c-1.1-2.5-3.3-9.6-3.3-9.6h-.3l-3.4 9.6-2.4 5.7zM218.2 35c0-11.4 8.7-20.8 21.6-20.8 8.3 0 12.4 3 15.2 5.2l-3.3 6.7a17.2 17.2 0 0 0-11.5-4.4c-8.2 0-13.1 6-13.1 13.3 0 7.2 4.9 12.7 13.5 12.7 6 0 9.9-3 12.4-5.3l3.3 6a22 22 0 0 1-16.3 6.7c-14.9 0-21.8-9.3-21.8-20zM273 22.4h-14.6V15h37.4v7.4h-14.5v32H273v-32z"/>
</svg>
