<svg id="Layer_1" xmlns="http://www.w3.org/2000/svg" viewBox="0 0 300 300"><style>.st0{fill:#323232}</style><path class="st0" d="M32.3 125l16.9 39.4H40l-4-9.1H19.8l-3.9 9.1H6.7L23.6 125h8.7zM22 149h11.8l-2.4-5.6c-1.1-2.5-3.3-9.6-3.3-9.6h-.3l-3.4 9.6L22 149zM54.4 125h15c11 0 15.9 5.4 15.9 12.7 0 4.5-1.9 8.7-6.4 10.8v.2l9.7 15.7h-9.4l-9-14.2h-7.4v14.2h-8.4V125zM69 143.8c5.6 0 8-1.7 8-5.9 0-3.3-1.7-5.7-7.5-5.7h-6.6v11.6h6zM103 132.4H88.5V125h37.4v7.4h-14.5v32H103v-32zM139.7 125v39.4h-8.4V125h8.4zM146.4 145c0-11.4 8.6-20.8 21.6-20.8 8.2 0 12.4 3 15.2 5.2l-3.3 6.7a17.2 17.2 0 0 0-11.5-4.4c-8.3 0-13.2 6-13.2 13.3 0 7.2 5 12.7 13.5 12.7 6 0 10-3 12.5-5.3l3.3 6a22 22 0 0 1-16.4 6.7c-14.8 0-21.7-9.2-21.7-20zM199 125v32h20.8v7.4h-29.1V125h8.4zM233.6 147.5v9.6h22.2v7.3h-30.6V125h29.6v7.3h-21.2v8.7h18.6v6.5h-18.6zM260 162l1.8-7c3.1 1.5 8.1 3.1 13 3.1 6.1 0 8.8-2.5 8.8-5.7 0-1.5-.8-2.7-2.1-3.4-1.4-.7-4.4-1.2-7.8-1.6-4-.4-7-1.1-9.3-2.5a9.5 9.5 0 0 1-4.9-8.7c0-7 6.4-12 16-12 5.5 0 10.3 1.2 14 2.9l-2 6.6a33.8 33.8 0 0 0-11.8-2.4c-6 0-7.8 2.5-7.8 5 0 1.2.5 2.4 2.2 3.2 1.6.8 4.2 1 7.5 1.5 3.7.5 7 1.2 9.1 2.4 3.5 2 5 5 5 9 0 7.2-5.4 12.7-16.2 12.7A35 35 0 0 1 260 162z"/></svg>