<svg id="Layer_1" xmlns="http://www.w3.org/2000/svg" viewBox="0 0 300 80">
  <style>
    .st0{fill:#323232}
  </style>
  <path class="st0" d="M8.7 52l1.8-7c3.2 1.5 8.2 3.1 13 3.1 6.2 0 8.8-2.5 8.8-5.7 0-1.5-.7-2.7-2-3.4-1.5-.7-4.4-1.2-7.9-1.6-3.9-.4-7-1.1-9.3-2.5a9.5 9.5 0 0 1-4.8-8.7c0-7 6.4-12 16-12 5.5 0 10.2 1.2 13.9 2.9l-2 6.6a33.8 33.8 0 0 0-11.7-2.4c-6 0-7.8 2.5-7.8 5 0 1.2.4 2.4 2.1 3.2 1.6.8 4.2 1 7.6 1.5 3.6.5 7 1.2 9 2.4 3.5 2 5.1 5 5.1 9 0 7.2-5.5 12.8-16.3 12.8A35 35 0 0 1 8.7 52zM55.7 37.5v9.6H78v7.3H47.3V15H77v7.3H55.7V31h18.7v6.5H55.7zM84.4 15h15c11 0 15.8 5.4 15.8 12.7 0 4.5-1.8 8.7-6.3 10.8v.2l9.7 15.7h-9.4l-9-14.2h-7.4v14.2h-8.4V15zm14.4 18.8c5.7 0 8-1.7 8-5.9 0-3.3-1.6-5.7-7.5-5.7h-6.5v11.6h6zM119 15h9.4l8.8 21c.8 2 2.3 7.3 2.3 7.3h.4s1.5-5.3 2.3-7.3l8.8-21h9.5l-16.6 39.4h-8.4L119 15zM174 15v39.4h-8.3V15h8.4zM180.8 35c0-11.4 8.6-20.8 21.6-20.8 8.2 0 12.4 3 15.2 5.2l-3.3 6.7a17.2 17.2 0 0 0-11.5-4.4c-8.3 0-13.2 6-13.2 13.3 0 7.3 5 12.7 13.5 12.7 6 0 10-3 12.5-5.3l3.3 6a22 22 0 0 1-16.4 6.7c-14.8 0-21.7-9.3-21.7-20zM233.5 37.5v9.6h22.2v7.3h-30.6V15h29.6v7.3h-21.2V31H252v6.5h-18.6zM259.9 52l1.8-7c3.1 1.5 8.1 3.1 13 3.1 6.1 0 8.8-2.5 8.8-5.7 0-1.5-.8-2.7-2.1-3.4-1.4-.7-4.4-1.2-7.8-1.6-4-.4-7-1.1-9.3-2.5a9.5 9.5 0 0 1-4.9-8.7c0-7 6.4-12 16-12 5.5 0 10.3 1.2 14 2.9l-2 6.6a33.8 33.8 0 0 0-11.8-2.4c-6 0-7.8 2.5-7.8 5 0 1.2.5 2.4 2.2 3.2 1.6.8 4.2 1 7.5 1.5 3.7.5 7 1.2 9.1 2.4 3.5 2 5 5 5 9 0 7.2-5.4 12.8-16.2 12.8a35 35 0 0 1-15.5-3.2z"/>
</svg>
