<svg id="Layer_1" xmlns="http://www.w3.org/2000/svg" viewBox="0 0 300 300"><style>.st0{fill:#323232}</style><path class="st0" d="M5.6 145c0-11.4 8.6-20.8 21.6-20.8 8.2 0 12.3 3 15.1 5.2L39 136a17.2 17.2 0 0 0-11.5-4.4c-8.2 0-13.1 6-13.1 13.3 0 7.3 4.9 12.7 13.5 12.7 6 0 9.9-3 12.4-5.3l3.3 6a22 22 0 0 1-16.3 6.7c-14.8 0-21.7-9.3-21.7-20zM90 144.4c0 12-8.6 20.7-21.5 20.7-12.2 0-21.4-8.2-21.4-20.6 0-11.5 9.2-20.3 21.4-20.3S90 133 90 144.4zm-34 .1c0 8.3 5.4 13 12.5 13s12.6-4.6 12.6-13c0-7.6-5.4-12.6-12.6-12.6-7 0-12.6 5-12.6 12.6zM125.8 125h8.4v39.4h-7.9L104.7 138s.4 6 .4 9v17.4h-8.3V125h8l21.4 26.2h.1s-.5-6-.5-8.4V125zM154 132.4h-14.5V125H177v7.4h-14.6v32H154v-32zM198.9 125l16.9 39.4h-9.2l-4-9.1h-16.3l-3.9 9.1h-9.1l16.9-39.4h8.7zm-10.3 24h11.8l-2.4-5.6c-1.1-2.5-3.3-9.6-3.3-9.6h-.3l-3.4 9.6-2.4 5.7zM218.3 145c0-11.4 8.6-20.8 21.5-20.8 8.3 0 12.4 3 15.2 5.2l-3.3 6.7a17.2 17.2 0 0 0-11.5-4.4c-8.2 0-13.1 6-13.1 13.3 0 7.3 4.9 12.7 13.5 12.7 6 0 9.9-3 12.4-5.3l3.3 6a22 22 0 0 1-16.3 6.7c-14.8 0-21.8-9.3-21.8-20zM273 132.4h-14.6V125h37.4v7.4h-14.5v32H273v-32z"/></svg>