<svg id="Layer_1" xmlns="http://www.w3.org/2000/svg" viewBox="0 0 300 80">
  <style>
    .st0{fill:#323232}
  </style>
  <path class="st0" d="M69 15l16.9 39.4h-9.2l-4-9.1H56.4l-3.9 9.1h-9.2l17-39.4h8.6zM58.5 39h11.9L68 33.5c-1-2.5-3.3-9.6-3.3-9.6h-.3s-2.3 7-3.3 9.6L58.6 39zM117 32.4c4.4 1.5 7 5 7 10 0 6.8-4.7 12-15 12H91V15H108c9.9 0 13.5 4.5 13.5 10 0 2.7-.6 5.4-4.5 7.2v.2zm-7.8-1.2c2.2 0 4-2 4-4.8 0-3.2-1.6-4.8-6.5-4.8h-7.2v9.6h9.7zm-9.7 5.3v11.3h8.6c5.1 0 7.3-1.6 7.3-5.5 0-3.5-1.8-5.8-7.1-5.8h-8.8zM170.9 34.5c0 11.8-8.7 20.6-21.5 20.6-12.3 0-21.5-8.2-21.5-20.6 0-11.5 9.3-20.3 21.5-20.3s21.5 8.8 21.5 20.3zm-34.1 0c0 8.4 5.5 13 12.6 13S162 43 162 34.5c0-7.5-5.4-12.6-12.6-12.6-7.1 0-12.6 5-12.6 12.6zM214 15v23.8c0 11.1-8.3 16.3-18.3 16.3s-18.3-5.2-18.3-16.3V15h8.4v23.5c0 5.7 3.2 9.2 10 9.2 6.5 0 9.8-3.5 9.8-9.2V15h8.4zM233.6 22.4h-14.5V15h37.5v7.4H242v32h-8.4v-32z"/>
</svg>
