<svg xmlns="http://www.w3.org/2000/svg" viewBox="0 0 1480.6 442.4"><style>.st2{fill:#6dc065}.st3{fill:#323232}.st4{fill:#3989c9}.st6{fill:none;stroke:#6dc065;stroke-width:26.7737;stroke-miterlimit:10}</style><g id="Bottom_Row"><path class="st2" d="M865 386.2h-14.6v-7.4H888v7.4h-14.5v32H865v-32zM936.4 398.3c0 11.9-8.6 20.7-21.5 20.7-12.3 0-21.4-8.2-21.4-20.7 0-11.5 9.2-20.2 21.4-20.2s21.5 8.7 21.5 20.2zm-34 0c0 8.4 5.4 13 12.5 13s12.6-4.6 12.6-13c0-7.5-5.4-12.6-12.6-12.6-7.1 0-12.6 5-12.6 12.6zM983.5 418.3h-8.4v-16.1l-15.8-23.4h9.6L976 389l3.2 5.7h.2l3.3-5.7 7-10.2h9.8l-16 23.4v16zM1046 398.3c0 11.9-8.6 20.7-21.4 20.7-12.3 0-21.5-8.2-21.5-20.7 0-11.5 9.2-20.2 21.5-20.2 12.1 0 21.4 8.7 21.4 20.2zm-34 0c0 8.4 5.4 13 12.6 13 7.1 0 12.6-4.6 12.6-13 0-7.5-5.4-12.6-12.6-12.6-7.2 0-12.6 5-12.6 12.6zM1092.2 378.8v23.8c0 11.2-8.3 16.4-18.3 16.4-10.1 0-18.4-5.2-18.4-16.4v-23.8h8.4v23.5c0 5.7 3.3 9.2 10 9.2 6.6 0 9.9-3.5 9.9-9.2v-23.5h8.4zM1104.4 378.8h15c11 0 15.9 5.4 15.9 12.8 0 4.4-1.9 8.6-6.4 10.8v.1l9.7 15.8h-9.4l-9-14.3h-7.4v14.3h-8.4v-39.5zm14.5 18.8c5.6 0 8-1.7 8-5.9 0-3.3-1.7-5.7-7.5-5.7h-6.6v11.6h6zM1190.1 396.2c4.4 1.5 7 5 7 10.1 0 6.7-4.6 12-14.9 12h-18v-39.5h16.8c10 0 13.6 4.5 13.6 10.1 0 2.6-.7 5.3-4.5 7.1v.2zm-7.7-1.2c2.2 0 4-2 4-4.8 0-3.1-1.6-4.8-6.5-4.8h-7.3v9.6h9.8zm-9.8 5.3v11.4h8.7c5 0 7.3-1.7 7.3-5.6 0-3.5-1.9-5.8-7.1-5.8h-8.9zM1243.3 378.8v23.8c0 11.2-8.3 16.4-18.3 16.4-10.1 0-18.4-5.2-18.4-16.4v-23.8h8.4v23.5c0 5.7 3.2 9.2 10 9.2 6.6 0 9.9-3.5 9.9-9.2v-23.5h8.4zM1253.2 415.8l1.8-6.9c3.1 1.4 8.2 3 13 3 6.2 0 8.8-2.5 8.8-5.6 0-1.5-.7-2.7-2.1-3.5-1.4-.7-4.3-1.2-7.8-1.6-3.9-.4-7-1.1-9.3-2.4a9.5 9.5 0 0 1-4.9-8.7c0-7 6.5-12 16-12 5.6 0 10.3 1.1 14 2.8l-2 6.6a33.8 33.8 0 0 0-11.8-2.4c-5.9 0-7.8 2.6-7.8 5 0 1.2.5 2.4 2.2 3.3 1.6.7 4.2 1 7.6 1.5 3.6.4 7 1.2 9 2.4 3.5 1.9 5.1 5 5.1 9 0 7.1-5.5 12.7-16.3 12.7-6.3 0-11.5-1.2-15.5-3.2zM1303.2 378.8v39.5h-8.4v-39.5h8.4zM1344.7 378.8h8.4v39.5h-7.8l-21.6-26.4h-.2s.6 6 .6 9v17.4h-8.4v-39.5h8L1345 405h.2s-.6-6.2-.6-8.4v-18zM1374 401.3v9.6h22.3v7.4h-30.7v-39.5h29.6v7.4H1374v8.7h18.7v6.4H1374zM1403.4 415.8l1.8-6.9c3.1 1.4 8.2 3 13 3 6.1 0 8.8-2.5 8.8-5.6 0-1.5-.7-2.7-2.1-3.5-1.4-.7-4.3-1.2-7.8-1.6-4-.4-7-1.1-9.3-2.4a9.5 9.5 0 0 1-4.9-8.7c0-7 6.4-12 16-12 5.6 0 10.3 1.1 14 2.8l-2 6.6a33.8 33.8 0 0 0-11.8-2.4c-6 0-7.8 2.6-7.8 5 0 1.2.5 2.4 2.2 3.3 1.6.7 4.2 1 7.5 1.5 3.7.4 7 1.2 9.2 2.4 3.4 1.9 5 5 5 9 0 7.1-5.5 12.7-16.3 12.7-6.3 0-11.5-1.2-15.5-3.2zM1442.7 415.8l1.8-6.9c3.1 1.4 8.2 3 13 3 6.1 0 8.8-2.5 8.8-5.6 0-1.5-.7-2.7-2.1-3.5-1.4-.7-4.3-1.2-7.8-1.6-4-.4-7-1.1-9.3-2.4a9.5 9.5 0 0 1-4.9-8.7c0-7 6.4-12 16-12 5.6 0 10.3 1.1 14 2.8l-2 6.6a33.8 33.8 0 0 0-11.8-2.4c-6 0-7.8 2.6-7.8 5 0 1.2.5 2.4 2.2 3.3 1.6.7 4.2 1 7.5 1.5 3.7.4 7 1.2 9.2 2.4 3.4 1.9 5 5 5 9 0 7.1-5.5 12.7-16.3 12.7-6.3 0-11.5-1.2-15.5-3.2z"/><g><path class="st3" d="M790.5 378.3v39.5H782v-39.5h8.4zM813.3 385.7h-14.5v-7.4h37.4v7.4h-14.5v32h-8.4v-32z"/></g><g><path class="st2" d="M472.9 378.4l17 39.5h-9.3l-4-9.2h-16.2l-4 9.2h-9.1l16.9-39.5h8.7zm-10.3 24.1h11.9l-2.5-5.7c-1-2.4-3.3-9.6-3.3-9.6h-.3s-2.3 7.1-3.4 9.6l-2.4 5.7zM506.4 378.4v32h20.8v7.5H498v-39.5h8.4zM544 378.4V418h-8.5v-39.5h8.4zM562.3 398.6c0 8 5.4 12.7 11.5 12.7a15 15 0 0 0 9.7-3.2v-5h-8.7v-6.3h17.1v21.1h-5.6l-1.7-4.2h-.3c-2.8 3.8-6.4 5-11 5-12.4 0-19.6-8.8-19.6-20.1 0-12 8.5-20.9 21.3-20.9 8.2 0 13 2.7 15.7 5l-2.8 6.7a20.5 20.5 0 0 0-12.4-4.3c-8.5 0-13.2 5.8-13.2 13.5zM633 378.4h8.3V418h-7.8l-21.6-26.4h-.2s.6 6 .6 9V418h-8.4v-39.5h8l21.4 26.3h.2s-.6-6.1-.6-8.4v-17.9zM662.2 378.4V418h-8.4v-39.5h8.4zM703.7 378.4h8.4V418h-7.8l-21.6-26.4h-.2s.6 6 .6 9V418h-8.4v-39.5h8l21.4 26.3h.2s-.6-6.1-.6-8.4v-17.9zM730.5 398.6c0 8 5.4 12.7 11.5 12.7a15 15 0 0 0 9.7-3.2v-5H743v-6.3H760v21.1h-5.6l-1.7-4.2h-.4c-2.7 3.8-6.3 5-11 5-12.4 0-19.6-8.8-19.6-20.1 0-12 8.6-20.9 21.4-20.9 8.2 0 12.9 2.7 15.7 5l-2.8 6.7a20.5 20.5 0 0 0-12.4-4.3c-8.5 0-13.2 5.8-13.2 13.5z"/></g></g><g id="Middle_Row"><path class="st3" d="M450 345l6.8-26a124.8 124.8 0 0 0 48.8 11.6c23 0 32.9-9.5 32.9-21.4 0-5.6-2.7-10.1-8-12.8-5-2.7-16.1-4.5-29.2-6.1a91.1 91.1 0 0 1-34.8-9.2 35.6 35.6 0 0 1-18.3-32.7c0-26 24.1-45 59.9-45 21 0 38.7 4.3 52.4 10.6l-7.2 25c-10.8-4.5-28.6-9-44.3-9-22.3 0-29.3 9.4-29.3 18.4 0 4.8 1.8 9.3 8.1 12.4 6.1 2.7 15.8 3.8 28.4 5.6 13.7 1.8 26.3 4.5 34.2 9a35.9 35.9 0 0 1 18.9 33.6c0 27-20.7 47.9-61.2 47.9-23.6 0-43-4.5-58-12zM620.6 290.7v36H704v27.5H589v-148h111v27.6h-79.5v32.6h70v24.3h-70zM722.5 206.1H779c41 0 59.2 20.3 59.2 48 0 16.6-7 32.4-23.9 40.5v.6l36.5 59h-35.4l-33.7-53.6H754v53.6h-31.5v-148zm54.2 70.7c21.2 0 30.2-6.5 30.2-22 0-12.7-6.3-21.7-28.4-21.7H754v43.7h22.7zM846.5 206.1h35.3l33.3 79c3 7.4 8.6 27.5 8.6 27.5h1.3s5.6-20 8.6-27.5l33-79h35.6l-62.1 148h-31.5l-62.1-148zM1047.6 206.1v148h-31.5v-148h31.5zM1067.2 281.5c0-43 32.4-78 81-78a83 83 0 0 1 57 19.3l-12.4 25a64.7 64.7 0 0 0-43.2-16.5c-30.9 0-49.3 22.3-49.3 50 0 27.2 18.4 47.7 50.6 47.7a68.4 68.4 0 0 0 46.8-20l12.4 23c-8.1 9-28.6 24.9-61.4 24.9-55.6 0-81.5-34.9-81.5-75.4zM1259.1 290.7v36h83.5v27.5h-115v-148h111v27.6H1259v32.6h70v24.3h-70zM1352.5 345l6.7-26a124.8 124.8 0 0 0 48.9 11.6c23 0 32.8-9.5 32.8-21.4 0-5.6-2.7-10.1-7.9-12.8-5.1-2.7-16.2-4.5-29.2-6.1a91.1 91.1 0 0 1-34.9-9.2 35.6 35.6 0 0 1-18.2-32.7c0-26 24-45 59.8-45 21 0 38.7 4.3 52.5 10.6l-7.2 25c-10.8-4.5-28.6-9-44.4-9-22.2 0-29.2 9.4-29.2 18.4 0 4.8 1.8 9.3 8.1 12.4 6 2.7 15.7 3.8 28.4 5.6 13.7 1.8 26.3 4.5 34.2 9a35.9 35.9 0 0 1 18.9 33.6c0 27-20.7 47.9-61.3 47.9-23.6 0-43-4.5-58-12z"/></g><g id="Top_Row"><g id="TECH"><path class="st4" d="M965.7 66h-54.2V38.4h139.7v27.8H997v119.6h-31.3V66zM1094.7 122.5v35.9h83v27.3h-114.4V38.3h110.5v27.6h-79.1v32.4h69.7v24.2h-69.7zM1183.6 113.3c0-42.7 32.3-77.7 80.7-77.7 30.6 0 46.1 11 56.6 19.3l-12.3 24.8a64.4 64.4 0 0 0-43-16.3c-30.7 0-49 22.2-49 49.7 0 27.1 18.3 47.5 50.3 47.5a68 68 0 0 0 46.6-20l12.4 23c-8.1 8.9-28.5 24.8-61.2 24.8-55.3 0-81-34.7-81-75zM1372.4 38.3v57.6h68.8V38.3h31.4v147.4h-31.4v-62h-68.8v62h-31.3V38.3h31.3z"/></g><g id="MSP"><path class="st2" d="M496 113c-3.7-6.1-17.4-30.3-17.4-30.3l-.7.2s2.3 27.1 2.3 34.7v69h-31.4V39.2h33l47.9 76h.4l48-76h33v147.4h-31.5v-69c0-7.6 2-34.7 2-34.7l-.6-.2s-13.5 24.2-17.3 30.2l-30.9 49H527l-31-49zM630 177.4l6.8-25.7a124.2 124.2 0 0 0 48.6 11.4c22.8 0 32.7-9.4 32.7-21.3 0-5.6-2.7-10-7.9-12.7s-16-4.5-29-6a90.8 90.8 0 0 1-34.8-9.3 35.4 35.4 0 0 1-18.1-32.4c0-26 24-44.8 59.5-44.8 20.9 0 38.6 4.2 52.2 10.5L733 71.9c-10.8-4.4-28.5-9-44.2-9-22.1 0-29 9.5-29 18.5 0 4.7 1.7 9.1 8 12.3 6 2.7 15.7 3.8 28.2 5.6 13.7 1.8 26.2 4.5 34 9a35.7 35.7 0 0 1 18.9 33.3c0 26.9-20.6 47.7-61 47.7-23.5 0-42.7-4.5-57.8-11.9zM820 39.2c43.9 0 63.6 21.5 63.6 51.1 0 32.7-20.2 51.3-59.3 51.3h-26.7v45h-31.4V39.2H820zm1.6 77.5c22 0 30.9-9 30.9-25.7 0-11.7-4.5-24.4-33-24.4h-22v50.1h24z"/></g></g><g id="Icon"><g id="Icon_Group"><path d="M305.4 342.3c34.4-24.3 58-63 61.9-107.4h-52.4c-4.8 29.2-25.4 55.2-55.8 73.7l22.5 104.6A200.6 200.6 0 0 1 22.1 234.9H75c4.7 50.7 35 94 77.6 116.6" fill="none" stroke="#3989c9" stroke-width="26.8" stroke-miterlimit="10"/><path class="st4" d="M156 373.2c10.4 0 20.3-9 19.8-19.8a20.1 20.1 0 0 0-19.8-19.8c-10.3 0-20.3 9.1-19.8 19.8a20.1 20.1 0 0 0 19.8 19.8zM311.5 360.3c10.4 0 20.3-9.1 19.8-19.8a20.1 20.1 0 0 0-19.8-19.8c-10.3 0-20.2 9-19.8 19.8a20.1 20.1 0 0 0 19.8 19.8z"/><path class="st6" d="M175.9 302.4a93.2 93.2 0 0 1 46.7-174.2 93.3 93.3 0 0 1 81 46.7h56.3a146.6 146.6 0 0 0-138.6-99.4c-67 0-123.3 45-140.9 106.6"/><path class="st2" d="M79.2 208.9c10.4 0 20.3-9.1 19.8-19.8a20.1 20.1 0 0 0-19.8-19.8c-10.3 0-20.2 9.1-19.8 19.8a20.1 20.1 0 0 0 19.8 19.8zM172 322.4c10.3 0 20.2-9 19.8-19.8a20.1 20.1 0 0 0-19.8-19.8c-10.4 0-20.3 9.1-19.8 19.8a20.1 20.1 0 0 0 19.8 19.8z"/><path class="st6" d="M25.8 182A200 200 0 0 1 221.9 22.3a200 200 0 0 1 103.5 371.3"/><path class="st2" d="M26.4 208.9c10.4 0 20.3-9.1 19.8-19.8a20.1 20.1 0 0 0-19.8-19.8c-10.3 0-20.3 9.1-19.8 19.8a20.1 20.1 0 0 0 19.8 19.8zM322.5 416c10.4 0 20.3-9 19.8-19.7a20.1 20.1 0 0 0-19.8-19.8c-10.3 0-20.3 9-19.8 19.8a20.1 20.1 0 0 0 19.8 19.8z"/></g></g></svg>