<?xml version="1.0" encoding="utf-8"?>
<!-- Generator: Adobe Illustrator 23.0.1, SVG Export Plug-In . SVG Version: 6.00 Build 0)  -->
<svg version="1.1" xmlns="http://www.w3.org/2000/svg" xmlns:xlink="http://www.w3.org/1999/xlink" x="0px" y="0px"
	 viewBox="0 0 1480.648 442.379" style="enable-background:new 0 0 1480.648 442.379;" xml:space="preserve">
<style type="text/css">
	.st0{fill:#86AF2F;}
	.st1{fill:#15A8CA;}
	.st2{clip-path:url(#SVGID_2_);}
	.st3{clip-path:url(#SVGID_4_);fill:none;stroke:#15A8CA;stroke-width:26.774;stroke-miterlimit:10;}
	.st4{clip-path:url(#SVGID_4_);fill:#15A8CA;}
	.st5{clip-path:url(#SVGID_6_);fill:none;stroke:#86AF2F;stroke-width:26.774;stroke-miterlimit:10;}
	.st6{clip-path:url(#SVGID_6_);fill:#86AF2F;}
	.st7{clip-path:url(#SVGID_8_);fill:none;stroke:#86AF2F;stroke-width:26.774;stroke-miterlimit:10;}
	.st8{clip-path:url(#SVGID_8_);fill:#86AF2F;}
</style>
<g id="Bottom_Row">
	<g>
		<path class="st0" d="M862.961,386.227h-14.52v-7.439h37.438v7.439h-14.52v32.039h-8.399V386.227z"/>
		<path class="st0" d="M934.419,398.287c0,11.88-8.64,20.699-21.479,20.699c-12.299,0-21.479-8.22-21.479-20.699
			c0-11.459,9.24-20.219,21.479-20.219C925.12,378.068,934.419,386.828,934.419,398.287z M900.341,398.347
			c0,8.34,5.46,13.02,12.6,13.02s12.6-4.68,12.6-13.02c0-7.56-5.4-12.66-12.6-12.66
			C905.801,385.687,900.341,390.788,900.341,398.347z"/>
		<path class="st0" d="M981.519,418.266h-8.399v-16.079l-15.839-23.399h9.659l7.08,10.2c0.54,0.899,3.18,5.76,3.18,5.76h0.18
			c0,0,2.76-4.86,3.36-5.76l7.02-10.2h9.72l-15.96,23.399V418.266z"/>
		<path class="st0" d="M1044.038,398.287c0,11.88-8.64,20.699-21.479,20.699c-12.299,0-21.479-8.22-21.479-20.699
			c0-11.459,9.24-20.219,21.479-20.219C1034.738,378.068,1044.038,386.828,1044.038,398.287z M1009.959,398.347
			c0,8.34,5.46,13.02,12.599,13.02c7.14,0,12.6-4.68,12.6-13.02c0-7.56-5.399-12.66-12.6-12.66
			C1015.419,385.687,1009.959,390.788,1009.959,398.347z"/>
		<path class="st0" d="M1090.177,378.788v23.819c0,11.159-8.279,16.379-18.299,16.379c-10.08,0-18.359-5.22-18.359-16.379v-23.819
			h8.399v23.52c0,5.699,3.24,9.239,9.96,9.239c6.6,0,9.899-3.54,9.899-9.239v-23.52H1090.177z"/>
		<path class="st0" d="M1102.419,378.788h15.059c10.92,0,15.779,5.399,15.779,12.779c0,4.44-1.859,8.64-6.359,10.8v0.18l9.72,15.72
			h-9.42l-8.999-14.279h-7.38v14.279h-8.399V378.788z M1116.878,397.626c5.64,0,8.04-1.739,8.04-5.879c0-3.36-1.681-5.76-7.56-5.76
			h-6.54v11.639H1116.878z"/>
		<path class="st0" d="M1188.096,396.187c4.439,1.56,7.02,5.04,7.02,10.14c0,6.72-4.619,11.939-14.879,11.939h-17.999v-39.479
			h16.799c9.899,0,13.56,4.5,13.56,10.14c0,2.58-0.66,5.28-4.5,7.08V396.187z M1180.357,394.987c2.22,0,4.079-1.979,4.079-4.8
			c0-3.119-1.68-4.8-6.539-4.8h-7.26v9.6H1180.357z M1170.637,400.327v11.34h8.64c5.1,0,7.319-1.62,7.319-5.52
			c0-3.54-1.859-5.82-7.14-5.82H1170.637z"/>
		<path class="st0" d="M1241.256,378.788v23.819c0,11.159-8.279,16.379-18.299,16.379c-10.08,0-18.359-5.22-18.359-16.379v-23.819
			h8.399v23.52c0,5.699,3.24,9.239,9.96,9.239c6.6,0,9.899-3.54,9.899-9.239v-23.52H1241.256z"/>
		<path class="st0" d="M1251.217,415.806l1.8-6.899c3.12,1.439,8.16,3.06,13.02,3.06c6.12,0,8.76-2.52,8.76-5.699
			c0-1.5-0.72-2.7-2.1-3.42c-1.381-0.721-4.32-1.2-7.8-1.62c-3.9-0.42-6.96-1.141-9.3-2.46c-3.54-1.98-4.86-5.34-4.86-8.7
			c0-6.959,6.42-11.999,15.96-11.999c5.58,0,10.319,1.14,13.979,2.819l-1.92,6.66c-2.88-1.2-7.62-2.399-11.819-2.399
			c-5.94,0-7.8,2.52-7.8,4.919c0,1.261,0.479,2.46,2.159,3.3c1.62,0.721,4.2,1.021,7.561,1.5c3.659,0.48,7.02,1.2,9.119,2.4
			c3.42,1.92,5.04,4.979,5.04,8.939c0,7.2-5.52,12.779-16.319,12.779C1260.396,418.986,1255.236,417.787,1251.217,415.806z"/>
		<path class="st0" d="M1301.196,378.788v39.479h-8.399v-39.479H1301.196z"/>
		<path class="st0" d="M1342.714,378.788h8.4v39.479h-7.86l-21.599-26.399h-0.12c0,0,0.54,6.061,0.54,9.061v17.339h-8.399v-39.479
			h7.979l21.479,26.279h0.12c0,0-0.54-6.12-0.54-8.399V378.788z"/>
		<path class="st0" d="M1371.995,401.347v9.6h22.259v7.319h-30.658v-39.479h29.578v7.38h-21.179v8.699h18.659v6.48H1371.995z"/>
		<path class="st0" d="M1401.395,415.806l1.8-6.899c3.12,1.439,8.16,3.06,13.02,3.06c6.12,0,8.76-2.52,8.76-5.699
			c0-1.5-0.72-2.7-2.1-3.42c-1.38-0.721-4.32-1.2-7.8-1.62c-3.9-0.42-6.96-1.141-9.3-2.46c-3.54-1.98-4.86-5.34-4.86-8.7
			c0-6.959,6.42-11.999,15.96-11.999c5.579,0,10.319,1.14,13.979,2.819l-1.92,6.66c-2.88-1.2-7.62-2.399-11.819-2.399
			c-5.94,0-7.8,2.52-7.8,4.919c0,1.261,0.479,2.46,2.159,3.3c1.62,0.721,4.2,1.021,7.561,1.5c3.659,0.48,7.02,1.2,9.119,2.4
			c3.42,1.92,5.04,4.979,5.04,8.939c0,7.2-5.52,12.779-16.319,12.779C1410.575,418.986,1405.415,417.787,1401.395,415.806z"/>
		<path class="st0" d="M1440.695,415.806l1.8-6.899c3.12,1.439,8.16,3.06,13.02,3.06c6.12,0,8.76-2.52,8.76-5.699
			c0-1.5-0.72-2.7-2.1-3.42c-1.381-0.721-4.32-1.2-7.8-1.62c-3.9-0.42-6.96-1.141-9.3-2.46c-3.54-1.98-4.86-5.34-4.86-8.7
			c0-6.959,6.42-11.999,15.96-11.999c5.58,0,10.319,1.14,13.979,2.819l-1.92,6.66c-2.88-1.2-7.62-2.399-11.819-2.399
			c-5.94,0-7.8,2.52-7.8,4.919c0,1.261,0.479,2.46,2.159,3.3c1.62,0.721,4.2,1.021,7.561,1.5c3.659,0.48,7.02,1.2,9.119,2.4
			c3.42,1.92,5.04,4.979,5.04,8.939c0,7.2-5.52,12.779-16.319,12.779C1449.875,418.986,1444.715,417.787,1440.695,415.806z"/>
	</g>
	<g>
		<path d="M788.462,378.297v39.479h-8.4v-39.479H788.462z"/>
		<path d="M811.322,385.737h-14.52v-7.439h37.438v7.439h-14.52v32.039h-8.399V385.737z"/>
	</g>
	<g>
		<path class="st0" d="M470.905,378.42l16.919,39.479h-9.18l-3.959-9.18h-16.319l-3.9,9.18h-9.18l16.919-39.479H470.905z
			 M460.585,402.54h11.879l-2.46-5.7c-1.08-2.459-3.3-9.6-3.3-9.6h-0.3c0,0-2.34,7.08-3.36,9.6L460.585,402.54z"/>
		<path class="st0" d="M504.445,378.42v32.039h20.759v7.439h-29.159V378.42H504.445z"/>
		<path class="st0" d="M541.945,378.42v39.479h-8.4V378.42H541.945z"/>
		<path class="st0" d="M560.304,398.58c0,7.979,5.4,12.72,11.52,12.72c4.56,0,8.34-1.8,9.72-3.18v-4.98h-8.76v-6.359h17.159v21.119
			h-5.64l-1.68-4.2h-0.36c-2.76,3.78-6.36,4.92-11.04,4.92c-12.359,0-19.559-8.76-19.559-20.039c0-11.999,8.52-20.879,21.359-20.879
			c8.16,0,12.9,2.7,15.66,4.979l-2.76,6.72c-3.36-2.399-7.2-4.26-12.42-4.26C565.044,385.14,560.304,390.9,560.304,398.58z"/>
		<path class="st0" d="M630.923,378.42h8.399v39.479h-7.859l-21.6-26.399h-0.12c0,0,0.54,6.061,0.54,9.061v17.339h-8.4V378.42h7.979
			l21.479,26.279h0.12c0,0-0.54-6.12-0.54-8.399V378.42z"/>
		<path class="st0" d="M660.204,378.42v39.479h-8.4V378.42H660.204z"/>
		<path class="st0" d="M701.722,378.42h8.399v39.479h-7.86L680.663,391.5h-0.12c0,0,0.54,6.061,0.54,9.061v17.339h-8.4V378.42h7.98
			l21.479,26.279h0.12c0,0-0.54-6.12-0.54-8.399V378.42z"/>
		<path class="st0" d="M728.483,398.58c0,7.979,5.4,12.72,11.52,12.72c4.56,0,8.339-1.8,9.72-3.18v-4.98h-8.76v-6.359h17.159v21.119
			h-5.64l-1.68-4.2h-0.36c-2.76,3.78-6.36,4.92-11.04,4.92c-12.359,0-19.559-8.76-19.559-20.039c0-11.999,8.52-20.879,21.359-20.879
			c8.16,0,12.899,2.7,15.66,4.979l-2.76,6.72c-3.359-2.399-7.199-4.26-12.419-4.26C733.223,385.14,728.483,390.9,728.483,398.58z"/>
	</g>
</g>
<g id="Middle_Row">
	<g>
		<path d="M448.03,344.958l6.75-25.875c11.7,5.399,30.601,11.475,48.826,11.475c22.951,0,32.851-9.45,32.851-21.375
			c0-5.625-2.7-10.126-7.875-12.825c-5.175-2.7-16.2-4.501-29.251-6.075c-14.625-1.575-26.101-4.275-34.876-9.226
			c-13.275-7.425-18.226-20.025-18.226-32.626c0-26.101,24.076-45.001,59.852-45.001c20.925,0,38.701,4.275,52.426,10.575
			l-7.2,24.976c-10.8-4.5-28.576-9-44.326-9c-22.275,0-29.25,9.45-29.25,18.45c0,4.725,1.8,9.225,8.1,12.375
			c6.075,2.701,15.75,3.826,28.351,5.625c13.726,1.801,26.326,4.5,34.201,9.001c12.825,7.2,18.9,18.676,18.9,33.525
			c0,27.001-20.701,47.927-61.202,47.927C482.457,356.884,463.106,352.384,448.03,344.958z"/>
		<path d="M618.581,290.732v36.001h83.477v27.451H587.08V206.13h110.928v27.676h-79.427v32.625h69.977v24.301H618.581z"/>
		<path d="M720.504,206.13h56.477c40.951,0,59.177,20.25,59.177,47.926c0,16.65-6.975,32.401-23.851,40.501v0.676l36.451,58.951
			h-35.326l-33.751-53.552h-27.676v53.552h-31.501V206.13z M774.731,276.782c21.15,0,30.151-6.524,30.151-22.05
			c0-12.601-6.3-21.601-28.351-21.601h-24.526v43.651H774.731z"/>
		<path d="M844.48,206.13h35.326l33.301,78.977c2.925,7.426,8.55,27.451,8.55,27.451h1.35c0,0,5.625-20.025,8.55-27.451
			l33.076-78.977h35.551l-62.102,148.054h-31.501L844.48,206.13z"/>
		<path d="M1045.629,206.13v148.054h-31.501V206.13H1045.629z"/>
		<path d="M1065.2,281.507c0-42.977,32.401-78.077,81.003-78.077c30.825,0,46.351,11.025,56.926,19.351l-12.375,24.976
			c-11.925-10.125-25.876-16.426-43.201-16.426c-30.826,0-49.276,22.276-49.276,49.951c0,27.227,18.45,47.702,50.627,47.702
			c22.5,0,37.126-11.476,46.801-20.026l12.375,22.951c-8.1,9-28.575,24.976-61.427,24.976
			C1091.076,356.884,1065.2,322.008,1065.2,281.507z"/>
		<path d="M1257.124,290.732v36.001h83.478v27.451h-114.979V206.13h110.928v27.676h-79.427v32.625h69.977v24.301H1257.124z"/>
		<path d="M1350.497,344.958l6.75-25.875c11.7,5.399,30.601,11.475,48.826,11.475c22.95,0,32.851-9.45,32.851-21.375
			c0-5.625-2.7-10.126-7.875-12.825c-5.175-2.7-16.2-4.501-29.251-6.075c-14.625-1.575-26.101-4.275-34.876-9.226
			c-13.275-7.425-18.226-20.025-18.226-32.626c0-26.101,24.076-45.001,59.852-45.001c20.926,0,38.701,4.275,52.427,10.575
			l-7.2,24.976c-10.8-4.5-28.575-9-44.326-9c-22.275,0-29.251,9.45-29.251,18.45c0,4.725,1.801,9.225,8.101,12.375
			c6.075,2.701,15.75,3.826,28.351,5.625c13.726,1.801,26.326,4.5,34.201,9.001c12.825,7.2,18.9,18.676,18.9,33.525
			c0,27.001-20.7,47.927-61.202,47.927C1384.923,356.884,1365.572,352.384,1350.497,344.958z"/>
	</g>
</g>
<g id="Top_Row">
	<g id="TECH">
		<path class="st1" d="M963.663,66.08h-54.208V38.303h139.775V66.08h-54.208v119.615h-31.36V66.08z"/>
		<path class="st1" d="M1092.687,122.527v35.84h83.104v27.328h-114.464V38.303h110.432v27.552h-79.071v32.48h69.663v24.191H1092.687
			z"/>
		<path class="st1" d="M1181.614,113.343c0-42.784,32.256-77.728,80.64-77.728c30.688,0,46.144,10.976,56.672,19.264l-12.32,24.864
			c-11.872-10.08-25.76-16.352-43.008-16.352c-30.688,0-49.056,22.176-49.056,49.728c0,27.104,18.368,47.488,50.4,47.488
			c22.399,0,36.959-11.424,46.592-19.936l12.319,22.848c-8.063,8.96-28.447,24.864-61.151,24.864
			C1207.374,188.383,1181.614,153.663,1181.614,113.343z"/>
		<path class="st1" d="M1370.443,38.303v57.568h68.768V38.303h31.359v147.392h-31.359v-62.048h-68.768v62.048h-31.36V38.303
			H1370.443z"/>
	</g>
	<g id="MSP">
		<path class="st0" d="M494.094,112.938c-3.808-6.048-17.472-30.24-17.472-30.24l-0.672,0.224c0,0,2.24,27.104,2.24,34.72v68.992
			h-31.36V39.242h32.928l47.936,75.936h0.448l47.936-75.936h32.928v147.392h-31.36v-68.992c0-7.616,2.016-34.72,2.016-34.72
			l-0.672-0.224c0,0-13.44,24.192-17.248,30.24l-30.912,49.056h-5.824L494.094,112.938z"/>
		<path class="st0" d="M628.044,177.45l6.72-25.76c11.648,5.376,30.464,11.424,48.608,11.424c22.848,0,32.704-9.408,32.704-21.28
			c0-5.6-2.688-10.08-7.84-12.768s-16.128-4.48-29.12-6.048c-14.56-1.568-25.984-4.256-34.72-9.184
			c-13.216-7.392-18.144-19.936-18.144-32.479c0-25.984,23.968-44.8,59.583-44.8c20.832,0,38.528,4.256,52.192,10.528l-7.168,24.864
			c-10.752-4.48-28.448-8.96-44.128-8.96c-22.176,0-29.12,9.408-29.12,18.368c0,4.704,1.792,9.184,8.064,12.32
			c6.048,2.688,15.68,3.808,28.224,5.6c13.664,1.792,26.208,4.479,34.048,8.96c12.768,7.168,18.816,18.592,18.816,33.375
			c0,26.88-20.608,47.712-60.928,47.712C662.316,189.322,643.052,184.842,628.044,177.45z"/>
		<path class="st0" d="M817.994,39.242c43.904,0,63.616,21.504,63.616,51.072c0,32.704-20.16,51.295-59.359,51.295h-26.656v45.024
			h-31.36V39.242H817.994z M819.562,116.746c21.952,0,30.912-8.96,30.912-25.76c0-11.648-4.48-24.416-32.928-24.416h-21.952v50.176
			H819.562z"/>
	</g>
	<g>
		<g>
			<defs>
				<rect id="SVGID_1_" x="0" y="7" width="430.134" height="428.379"/>
			</defs>
			<clipPath id="SVGID_2_">
				<use xlink:href="#SVGID_1_"  style="overflow:visible;"/>
			</clipPath>
			<g class="st2">
				<defs>
					<rect id="SVGID_3_" x="0" y="7" width="430.134" height="428.379"/>
				</defs>
				<clipPath id="SVGID_4_">
					<use xlink:href="#SVGID_3_"  style="overflow:visible;"/>
				</clipPath>
				<path class="st3" d="M299.615,341.741c34.502-24.335,58.119-63.214,62.105-107.834h-52.497
					c-4.854,29.384-25.501,55.449-55.976,74.089c4.715,21.924,17.293,80.412,22.567,104.938
					c-18.903,5.886-39.011,9.058-59.869,9.058c-106.718,0-193.857-83.032-200.407-188.085h52.909
					c4.72,50.996,35.058,94.374,77.886,117.087"/>
				<path class="st4" d="M149.817,372.758c10.357,0,20.279-9.107,19.8-19.8c-0.481-10.727-8.7-19.8-19.8-19.8
					c-10.357,0-20.279,9.107-19.8,19.8C130.497,363.686,138.716,372.758,149.817,372.758"/>
				<path class="st4" d="M305.817,359.758c10.356,0,20.278-9.107,19.8-19.8c-0.481-10.727-8.7-19.8-19.8-19.8
					c-10.357,0-20.279,9.107-19.8,19.8C286.498,350.686,294.716,359.758,305.817,359.758"/>
			</g>
			<g class="st2">
				<defs>
					<rect id="SVGID_5_" x="0" y="7" width="430.134" height="428.379"/>
				</defs>
				<clipPath id="SVGID_6_">
					<use xlink:href="#SVGID_5_"  style="overflow:visible;"/>
				</clipPath>
				<path class="st5" d="M169.76,301.711c-28.02-16.19-46.854-46.47-46.854-81.191c0-51.795,41.913-93.708,93.708-93.708
					c34.72,0,65,18.833,81.186,46.854h56.538c-19.859-58.069-74.571-99.732-139.042-99.732c-67.131,0-123.68,45.172-141.319,106.998
					"/>
				<path class="st6" d="M72.817,207.758c10.357,0,20.279-9.107,19.8-19.8c-0.481-10.728-8.7-19.8-19.8-19.8
					c-10.357,0-20.279,9.107-19.8,19.8C53.497,198.686,61.716,207.758,72.817,207.758"/>
				<path class="st6" d="M165.817,321.758c10.357,0,20.279-9.107,19.8-19.8c-0.481-10.727-8.7-19.8-19.8-19.8
					c-10.357,0-20.279,9.107-19.8,19.8C146.497,312.686,154.716,321.758,165.817,321.758"/>
			</g>
			<g class="st2">
				<defs>
					<rect id="SVGID_7_" x="0" y="7" width="430.134" height="428.379"/>
				</defs>
				<clipPath id="SVGID_8_">
					<use xlink:href="#SVGID_7_"  style="overflow:visible;"/>
				</clipPath>
				<path class="st7" d="M19.17,180.932C37.787,89.268,118.744,20.387,215.945,20.387c110.99,0,200.803,89.812,200.803,200.802
					c0,73.011-38.864,136.857-97.053,172.003"/>
				<path class="st8" d="M19.817,207.758c10.357,0,20.279-9.107,19.8-19.8c-0.481-10.728-8.7-19.8-19.8-19.8
					c-10.357,0-20.279,9.107-19.8,19.8C0.497,198.686,8.717,207.758,19.817,207.758"/>
				<path class="st8" d="M316.817,415.758c10.356,0,20.278-9.107,19.8-19.8c-0.481-10.727-8.7-19.8-19.8-19.8
					c-10.357,0-20.279,9.107-19.8,19.8C297.498,406.686,305.716,415.758,316.817,415.758"/>
			</g>
		</g>
	</g>
	<g>
	</g>
	<g>
	</g>
	<g>
	</g>
	<g>
	</g>
	<g>
	</g>
	<g>
	</g>
	<g>
	</g>
	<g>
	</g>
	<g>
	</g>
	<g>
	</g>
	<g>
	</g>
	<g>
	</g>
	<g>
	</g>
	<g>
	</g>
	<g>
	</g>
</g>
</svg>
