<?xml version="1.0" encoding="utf-8"?>
<!-- Generator: Adobe Illustrator 23.0.2, SVG Export Plug-In . SVG Version: 6.00 Build 0)  -->
<svg version="1.1" id="Layer_1" xmlns="http://www.w3.org/2000/svg" xmlns:xlink="http://www.w3.org/1999/xlink" x="0px" y="0px"
	 viewBox="0 0 300 300" style="enable-background:new 0 0 300 300;" xml:space="preserve">
<style type="text/css">
	.st0{fill:#ECF5E4;}
</style>
<g>
	<path class="st0" d="M32.28,124.951l16.919,39.479h-9.18l-3.96-9.18H19.74l-3.899,9.18h-9.18l16.919-39.479H32.28z M21.96,149.07
		h11.88l-2.46-5.699c-1.08-2.46-3.3-9.6-3.3-9.6h-0.3c0,0-2.34,7.079-3.36,9.6L21.96,149.07z"/>
	<path class="st0" d="M54.42,124.951h15.06c10.92,0,15.779,5.4,15.779,12.78c0,4.439-1.86,8.64-6.359,10.799v0.181l9.719,15.719
		h-9.419l-9-14.279H62.82v14.279h-8.4V124.951z M68.88,143.791c5.64,0,8.039-1.74,8.039-5.88c0-3.36-1.68-5.76-7.56-5.76H62.82
		v11.64H68.88z"/>
	<path class="st0" d="M103.02,132.392H88.5v-7.44h37.438v7.44h-14.52v32.038h-8.399V132.392z"/>
	<path class="st0" d="M139.68,124.951v39.479h-8.399v-39.479H139.68z"/>
	<path class="st0" d="M146.399,145.051c0-11.46,8.64-20.819,21.6-20.819c8.22,0,12.359,2.94,15.18,5.16l-3.3,6.659
		c-3.181-2.699-6.9-4.38-11.52-4.38c-8.22,0-13.14,5.94-13.14,13.319c0,7.26,4.92,12.72,13.499,12.72c6,0,9.899-3.06,12.479-5.34
		l3.3,6.12c-2.159,2.399-7.619,6.659-16.379,6.659C153.3,165.149,146.399,155.851,146.399,145.051z"/>
	<path class="st0" d="M199.078,124.951v32.039h20.759v7.439h-29.158v-39.479H199.078z"/>
	<path class="st0" d="M233.578,147.511v9.6h22.259v7.319h-30.658v-39.479h29.578v7.38h-21.179v8.7h18.659v6.479H233.578z"/>
	<path class="st0" d="M259.979,161.97l1.8-6.899c3.12,1.439,8.16,3.06,13.02,3.06c6.12,0,8.76-2.52,8.76-5.699
		c0-1.5-0.72-2.7-2.1-3.42c-1.381-0.72-4.32-1.2-7.8-1.62c-3.9-0.42-6.96-1.14-9.3-2.46c-3.54-1.979-4.86-5.34-4.86-8.699
		c0-6.96,6.42-12,15.96-12c5.58,0,10.319,1.14,13.979,2.82l-1.92,6.659c-2.88-1.2-7.62-2.399-11.819-2.399
		c-5.94,0-7.8,2.52-7.8,4.92c0,1.26,0.479,2.46,2.159,3.3c1.62,0.72,4.2,1.02,7.561,1.5c3.659,0.479,7.02,1.199,9.119,2.399
		c3.42,1.92,5.04,4.979,5.04,8.939c0,7.2-5.52,12.779-16.319,12.779C269.158,165.149,263.998,163.95,259.979,161.97z"/>
</g>
<g>
</g>
<g>
</g>
<g>
</g>
<g>
</g>
<g>
</g>
<g>
</g>
<g>
</g>
<g>
</g>
<g>
</g>
<g>
</g>
<g>
</g>
<g>
</g>
<g>
</g>
<g>
</g>
<g>
</g>
</svg>
