<?xml version="1.0" encoding="utf-8"?>
<!-- Generator: Adobe Illustrator 23.0.2, SVG Export Plug-In . SVG Version: 6.00 Build 0)  -->
<svg version="1.1" id="Layer_1" xmlns="http://www.w3.org/2000/svg" xmlns:xlink="http://www.w3.org/1999/xlink" x="0px" y="0px"
	 viewBox="0 0 300 300" style="enable-background:new 0 0 300 300;" xml:space="preserve">
<style type="text/css">
	.st0{fill:#ECF5E4;}
</style>
<g>
	<path class="st0" d="M68.94,124.951l16.919,39.479H76.68l-3.96-9.18H56.401l-3.9,9.18h-9.18l16.919-39.479H68.94z M58.621,149.07
		H70.5l-2.459-5.699c-1.08-2.46-3.3-9.6-3.3-9.6h-0.3c0,0-2.34,7.079-3.36,9.6L58.621,149.07z"/>
	<path class="st0" d="M116.939,142.351c4.44,1.561,7.02,5.04,7.02,10.14c0,6.72-4.62,11.939-14.879,11.939h-18v-39.479h16.799
		c9.9,0,13.559,4.5,13.559,10.14c0,2.58-0.659,5.28-4.5,7.08V142.351z M109.2,141.15c2.22,0,4.08-1.979,4.08-4.8
		c0-3.119-1.68-4.8-6.54-4.8H99.48v9.6H109.2z M99.48,146.49v11.34h8.64c5.1,0,7.319-1.62,7.319-5.52c0-3.54-1.86-5.82-7.14-5.82
		H99.48z"/>
	<path class="st0" d="M170.879,144.451c0,11.879-8.641,20.698-21.48,20.698c-12.3,0-21.479-8.219-21.479-20.698
		c0-11.46,9.24-20.22,21.479-20.22C161.578,124.231,170.879,132.991,170.879,144.451z M136.799,144.511
		c0,8.34,5.46,13.02,12.6,13.02c7.14,0,12.599-4.68,12.599-13.02c0-7.56-5.398-12.659-12.599-12.659
		C142.259,131.852,136.799,136.951,136.799,144.511z"/>
	<path class="st0" d="M214.018,124.951v23.819c0,11.159-8.279,16.379-18.299,16.379c-10.08,0-18.359-5.22-18.359-16.379v-23.819h8.4
		v23.52c0,5.699,3.24,9.239,9.959,9.239c6.6,0,9.9-3.54,9.9-9.239v-23.52H214.018z"/>
	<path class="st0" d="M233.639,132.392h-14.52v-7.44h37.438v7.44h-14.518v32.038h-8.4V132.392z"/>
</g>
<g>
</g>
<g>
</g>
<g>
</g>
<g>
</g>
<g>
</g>
<g>
</g>
<g>
</g>
<g>
</g>
<g>
</g>
<g>
</g>
<g>
</g>
<g>
</g>
<g>
</g>
<g>
</g>
<g>
</g>
</svg>
