<?xml version="1.0" encoding="utf-8"?>
<!-- Generator: Adobe Illustrator 23.0.2, SVG Export Plug-In . SVG Version: 6.00 Build 0)  -->
<svg version="1.1" id="Layer_1" xmlns="http://www.w3.org/2000/svg" xmlns:xlink="http://www.w3.org/1999/xlink" x="0px" y="0px"
	 viewBox="0 0 300 300" style="enable-background:new 0 0 300 300;" xml:space="preserve">
<style type="text/css">
	.st0{fill:#ECF5E4;}
</style>
<g>
	<path class="st0" d="M5.551,145.05c0-11.459,8.64-20.819,21.6-20.819c8.22,0,12.359,2.94,15.179,5.16l-3.3,6.66
		c-3.18-2.7-6.899-4.38-11.52-4.38c-8.22,0-13.139,5.94-13.139,13.319c0,7.26,4.919,12.72,13.499,12.72c6,0,9.899-3.061,12.479-5.34
		l3.3,6.119c-2.16,2.4-7.62,6.66-16.379,6.66C12.451,165.149,5.551,155.85,5.551,145.05z"/>
	<path class="st0" d="M90.028,144.451c0,11.879-8.64,20.699-21.479,20.699c-12.299,0-21.479-8.22-21.479-20.699
		c0-11.459,9.239-20.219,21.479-20.219C80.729,124.231,90.028,132.991,90.028,144.451z M55.949,144.511
		c0,8.339,5.46,13.019,12.6,13.019s12.6-4.68,12.6-13.019c0-7.56-5.399-12.66-12.6-12.66
		C61.409,131.851,55.949,136.951,55.949,144.511z"/>
	<path class="st0" d="M125.789,124.951h8.4v39.479h-7.86l-21.599-26.399h-0.12c0,0,0.54,6.06,0.54,9.06v17.339h-8.399v-39.479h7.979
		l21.479,26.279h0.12c0,0-0.54-6.12-0.54-8.4V124.951z"/>
	<path class="st0" d="M154.05,132.391h-14.52v-7.44h37.438v7.44H162.45v32.039h-8.4V132.391z"/>
	<path class="st0" d="M198.869,124.951l16.92,39.479h-9.18l-3.96-9.18H186.33l-3.9,9.18h-9.179l16.919-39.479H198.869z
		 M188.55,149.07h11.88l-2.46-5.7c-1.08-2.46-3.3-9.6-3.3-9.6h-0.3c0,0-2.341,7.08-3.36,9.6L188.55,149.07z"/>
	<path class="st0" d="M218.25,145.05c0-11.459,8.64-20.819,21.6-20.819c8.22,0,12.359,2.94,15.18,5.16l-3.3,6.66
		c-3.181-2.7-6.9-4.38-11.52-4.38c-8.22,0-13.14,5.94-13.14,13.319c0,7.26,4.92,12.72,13.499,12.72c6,0,9.899-3.061,12.479-5.34
		l3.3,6.119c-2.16,2.4-7.619,6.66-16.379,6.66C225.15,165.149,218.25,155.85,218.25,145.05z"/>
	<path class="st0" d="M272.908,132.391h-14.52v-7.44h37.438v7.44h-14.52v32.039h-8.399V132.391z"/>
</g>
<g>
</g>
<g>
</g>
<g>
</g>
<g>
</g>
<g>
</g>
<g>
</g>
<g>
</g>
<g>
</g>
<g>
</g>
<g>
</g>
<g>
</g>
<g>
</g>
<g>
</g>
<g>
</g>
<g>
</g>
</svg>
