<svg id="Layer_2" xmlns="http://www.w3.org/2000/svg" viewBox="0 0 294.5 30.6">
  <style>
    .st0{fill:#323232}
  </style>
  <path class="st0" d="M49 11.4h-5V9h12.6v2.5h-4.9v10.7H49V11.4zM63.2 9c3.9 0 5.6 1.9 5.6 4.5 0 3-1.8 4.6-5.3 4.6h-2.3v4h-2.8V9h4.8zm0 6.9c2 0 2.9-.8 2.9-2.3 0-1-.4-2.2-3-2.2h-2v4.5h2.2zM75.3 15.5a131 131 0 0 1-1.6-2.7l.2 3.1v6.2H71V9h3l4.2 6.8L82.6 9h3v13.2h-2.8V16l.1-3-1.6 2.6-2.7 4.4H78l-2.8-4.4zM102.5 17l.5 2.4h.1s.3-2 .5-2.4l1.5-4.8h2.7l-3.2 10H102l-1.5-4.5-.5-2-.6 2-1.5 4.4h-2.6l-3.2-9.9h2.7l1.6 4.8.4 2.4h.2l.4-2.4 1.5-4.4h2l1.6 4.4zM110.7 7.5c1 0 1.6.6 1.6 1.4 0 .9-.6 1.5-1.6 1.5s-1.6-.6-1.6-1.5c0-.8.6-1.4 1.6-1.4zm-1.3 14.6v-9.9h2.6v10h-2.6zM118 14.4v4.2c0 1.1.3 1.5 1.2 1.5l1.3-.2.3 2s-1 .4-2.3.4c-2 0-3.2-1-3.2-3.3v-4.6h-1.7v-2.2h1.6l1.4-2.4h1.3v2.4h3v2.2h-3zM125.3 22.1h-2.6V7h2.6v6.8c.6-1 1.8-1.7 3.5-1.7 2.4 0 3.7 1.3 3.7 3.4V22H130v-6c0-1.2-.5-1.8-1.8-1.8s-2.2.7-2.8 1.5V22zM139.5 21.3l.6-2.3c1 .5 2.7 1 4.3 1 2 0 3-.8 3-1.9 0-.5-.3-.9-.8-1.1l-2.6-.6a8.1 8.1 0 0 1-3-.8 3.2 3.2 0 0 1-1.7-2.9c0-2.3 2.1-4 5.3-4 1.9 0 3.5.4 4.7 1l-.7 2.2c-1-.4-2.5-.8-4-.8-1.9 0-2.5.8-2.5 1.6 0 .4.2.8.7 1.1.6.3 1.4.4 2.5.5a9 9 0 0 1 3 .8c1.2.7 1.8 1.7 1.8 3 0 2.4-1.9 4.3-5.5 4.3-2 0-3.8-.4-5.1-1.1zM155.1 16.5v3.2h7.4V22h-10.2V9h9.9v2.5h-7v3h6.1v2h-6.2zM163.8 15.7c0-3.9 2.8-7 7.2-7 2.7 0 4 1 5 1.7l-1 2.3c-1.1-1-2.4-1.5-4-1.5-2.7 0-4.3 2-4.3 4.4 0 2.5 1.6 4.3 4.5 4.3 2 0 3.3-1 4.2-1.8l1 2c-.7.8-2.5 2.3-5.4 2.3-5 0-7.2-3.1-7.2-6.7zM190.7 9v7.9c0 3.7-2.8 5.5-6.1 5.5-3.4 0-6.2-1.8-6.2-5.5v-8h2.8v7.9c0 1.9 1.1 3 3.4 3 2.2 0 3.3-1.1 3.3-3V8.9h2.8zM193.7 9h5c3.7 0 5.3 1.7 5.3 4.2 0 1.5-.6 2.9-2.1 3.6l3.2 5.3H202l-3-4.7h-2.5V22h-2.8V9zm4.9 6.2c1.8 0 2.6-.5 2.6-2 0-1-.5-1.8-2.5-1.8h-2.2v3.8h2zM209.7 9V22h-2.8V9h2.8zM216.3 11.4h-4.8V9h12.4v2.5h-4.8v10.7h-2.8V11.4zM232.8 22.1H230v-5.4L224.7 9h3.2l2.4 3.4 1 2 1.2-2L235 9h3.2l-5.3 7.8v5.4zM239.5 15.4h4v-4h2v4h3.9v1.9h-4v4h-2v-4h-4v-1.9z"/>
</svg>
