<svg id="Layer_1" xmlns="http://www.w3.org/2000/svg" viewBox="0 0 294.5 30.6">
  <style>
    .st0{fill:#323232}
  </style>
  <path class="st0" d="M13.5 11.4H8.7V9h12.5v2.5h-4.9v10.7h-2.8V11.4zM36.3 15.4c0 4-2.8 7-7.1 7-4.1 0-7.2-2.8-7.2-7 0-3.8 3-6.7 7.2-6.7 4 0 7.1 3 7.1 6.7zm-11.3 0c0 2.8 1.8 4.4 4.2 4.4s4.2-1.6 4.2-4.3a4 4 0 0 0-4.2-4.3 4 4 0 0 0-4.2 4.3zM42 11.4h-4.8V9h12.5v2.5h-4.9v10.7H42V11.4zM57 9L62.6 22h-3l-1.4-3h-5.4l-1.3 3h-3L54 9H57zm-3.5 8h4l-.8-2c-.4-.7-1.1-3.1-1.1-3.1h-.1L54.4 15l-.9 1.9zM67.2 9v10.6H74v2.5h-9.7V9h2.8zM85.5 9c3.9 0 5.6 1.9 5.6 4.5 0 3-1.8 4.6-5.3 4.6h-2.3v4h-2.8V9h4.8zm0 6.9c2 0 2.9-.8 2.9-2.3 0-1-.4-2.2-3-2.2h-2v4.5h2.2zM93.4 9h5c3.6 0 5.3 1.7 5.3 4.2 0 1.5-.7 2.9-2.2 3.6l3.3 5.3h-3.2l-3-4.8h-2.4v4.8h-2.8V9zm4.8 6.2c1.9 0 2.7-.6 2.7-2 0-1-.6-1.9-2.5-1.9h-2.2v4h2zM120 15.4c0 4-3 7-7.2 7-4.1 0-7.2-2.8-7.2-7 0-3.8 3-6.7 7.2-6.7 4 0 7.1 3 7.1 6.7zm-11.4 0c0 2.8 1.8 4.4 4.2 4.4 2.3 0 4.2-1.6 4.2-4.3a4 4 0 0 0-4.2-4.3 4 4 0 0 0-4.2 4.3zM125.6 11.4h-4.8V9h12.5v2.5h-4.9v10.7h-2.8V11.4zM137.8 16.5v3.2h7.5V22H135V9h9.9v2.5h-7v3h6.2v2h-6.3zM146.5 15.6c0-3.8 2.9-6.9 7.2-6.9 2.7 0 4.1 1 5 1.7l-1 2.2c-1.1-.9-2.4-1.4-3.9-1.4-2.7 0-4.4 2-4.4 4.4 0 2.5 1.7 4.3 4.5 4.3 2 0 3.3-1 4.2-1.8l1 2c-.6.8-2.5 2.3-5.4 2.3-5 0-7.2-3.1-7.2-6.8zM164.7 11.4h-4.8V9h12.4v2.5h-4.8v10.7h-2.8V11.4zM177 9V22H174V9h2.8zM193.5 15.4c0 4-2.9 7-7.2 7-4 0-7.1-2.8-7.1-7 0-3.8 3-6.7 7.1-6.7 4 0 7.2 3 7.2 6.7zm-11.4 0c0 2.8 1.8 4.4 4.2 4.4 2.4 0 4.2-1.6 4.2-4.3a4 4 0 0 0-4.2-4.3 4 4 0 0 0-4.2 4.3zM205.4 9h2.8V22h-2.6l-7.2-8.8.1 3v5.8h-2.8V9h2.7l7.1 8.8-.1-2.8V9zM220.4 15.5a130 130 0 0 1-1.6-2.7l.2 3.1v6.2h-2.8V9h2.9l4.3 6.8 4.3-6.8h3v13.2h-2.9V16l.2-3-1.6 2.6-2.7 4.4h-.6l-2.7-4.4zM247.2 15.4c0 4-2.9 7-7.2 7-4 0-7.1-2.8-7.1-7 0-3.8 3-6.7 7.1-6.7 4 0 7.2 3 7.2 6.7zm-11.4 0c0 2.8 1.9 4.4 4.2 4.4 2.4 0 4.2-1.6 4.2-4.3a4 4 0 0 0-4.2-4.3 4 4 0 0 0-4.2 4.3zM253.6 9c5.8 0 8 2.8 8 6.5 0 4.4-2.6 6.6-7.2 6.6h-5V9h4.2zm-1.4 10.6h2.2c3 0 4.3-1.2 4.3-4 0-2.4-1.2-4.2-4.7-4.2h-1.8v8.2zM266.6 16.5v3.2h7.4V22h-10.2V9h9.8v2.5h-7v3h6.2v2h-6.2zM279 9v10.6h6.9v2.5H276V9h2.8z"/>
</svg>
